{"title":"Harry Potter And The Deathly Hallows 2011 UNRATED BRRiP XviD AC3","uid":6788402,"size":2345030688,"categoryP":"video","categoryS":"movies","magnet":"?xt=urn:btih:b72cf84692de0f0fea513d65804cc7e89dec4f26&amp;dn=Harry+Potter+And+The+Deathly+Hallows+2011+UNRATED+BRRiP+XviD+AC3&amp;tr=udp%3A%2F%2Ftracker.openbittorrent.com%3A80&amp;tr=udp%3A%2F%2Fopen.demonii.com%3A1337&amp;tr=udp%3A%2F%2Ftracker.coppersurfer.tk%3A6969&amp;tr=udp%3A%2F%2Fexodus.desync.com%3A6969","seeders":0,"leechers":0,"uploader":"sceneline","files":159,"time":1320181998,"description":"- &lt;a href=&quot;\nhttp://www.Speed.Cd&quot; rel=&quot;nofollow&quot; target=&quot;_NEW&quot;&gt;\nhttp://www.Speed.Cd&lt;/a&gt;      fast  and The Hottest Private Tracker on the net\n\n   signup is open now\n\nPlease Seed back to make the speed Faster!!!\n\n------------------nfo--------------------------\n-\nHarry Potter And The Deathly Hallows 2011 UNRATED BRRiP XviD AC3 - MiSTERE\n\nSOURCE: Harry.Potter.And.The.Deathly.Hallows.Part.2.720p.Bluray.x264-MHD \n\nVideo\nID                               : 0\nFormat                           : MPEG-4 Visual\nFormat profile                   : Advanced Simple@L5\nFormat settings, BVOP            : 2\nFormat settings, QPel            : No\nFormat settings, GMC             : No warppoints\nFormat settings, Matrix          : Default (H.263)\nMuxing mode                      : Packed bitstream\nCodec ID                         : XVID\nCodec ID/Hint                    : XviD\nDuration                         : 2h 10mn\nBit rate                         : 2 103 Kbps\nWidth                            : 720 pixels\nHeight                           : 304 pixels\nDisplay aspect ratio             : 2.35:1\nFrame rate                       : 23.976 fps\nColor space                      : YUV\nChroma subsampling               : 4:2:0\nBit depth                        : 8 bits\nScan type                        : Progressive\nCompression mode                 : Lossy\nBits/(Pixel*Frame)               : 0.401\nStream size                      : 1.92 GiB (89%)\nWriting library                  : XviD 64\n\nAudio\nID                               : 1\nFormat                           : AC-3\nFormat/Info                      : Audio Coding 3\nMode extension                   : CM (complete main)\nCodec ID                         : 2000\nDuration                         : 2h 10mn\nBit rate mode                    : Constant\nBit rate                         : 256 Kbps\nChannel(s)                       : 6 channels\nChannel positions                : Front: L C R, Side: L R, LFE\nSampling rate                    : 48.0 KHz\nBit depth                        : 16 bits\nCompression mode                 : Lossy\nStream size                      : 239 MiB (11%)\nAlignment                        : Aligned on interleaves\nInterleave, duration             : 42 ms (1.00 video frame)\n\n\nNotes:\nResized and sharpened video \nthen adjusted the RGB abit\n\n[IMG]http://i.imgur.com/1yzyu.png[/IMG]\n[IMG]http://i.imgur.com/Nslah.png[/IMG]\n[IMG]http://i.imgur.com/CUMUP.png[/IMG]\n[IMG]http://i.imgur.com/rdyBE.png[/IMG]\n[IMG]http://i.imgur.com/TI1fJ.png[/IMG]","torrent":{"xt":"urn:btih:b72cf84692de0f0fea513d65804cc7e89dec4f26","amp;dn":"Harry+Potter+And+The+Deathly+Hallows+2011+UNRATED+BRRiP+XviD+AC3","amp;tr":["udp%3A%2F%2Ftracker.openbittorrent.com%3A80","udp%3A%2F%2Fopen.demonii.com%3A1337","udp%3A%2F%2Ftracker.coppersurfer.tk%3A6969","udp%3A%2F%2Fexodus.desync.com%3A6969"],"infoHash":"b72cf84692de0f0fea513d65804cc7e89dec4f26","infoHashBuffer":{"type":"Buffer","data":[183,44,248,70,146,222,15,15,234,81,61,101,128,76,199,232,157,236,79,38]},"announce":[],"urlList":[]}}